<mxfile host="app.diagrams.net" modified="2024-04-09T16:14:18.647Z" agent="Mozilla/5.0 (Windows NT 10.0; Win64; x64) AppleWebKit/537.36 (KHTML, like Gecko) Chrome/123.0.0.0 Safari/537.36" etag="bNVlY9c7_MpgNRWvrUuT" version="24.2.3" type="device">
  <diagram name="Страница — 1" id="xl1ZkHOa6ZgcPgueykzu">
    <mxGraphModel dx="1050" dy="557" grid="1" gridSize="10" guides="1" tooltips="1" connect="1" arrows="1" fold="1" page="1" pageScale="1" pageWidth="827" pageHeight="1169" math="0" shadow="0">
      <root>
        <mxCell id="0" />
        <mxCell id="1" parent="0" />
        <mxCell id="3eQRNPQ5gZ0zEMX6RfgH-3" value="" style="edgeStyle=orthogonalEdgeStyle;rounded=0;orthogonalLoop=1;jettySize=auto;html=1;" edge="1" parent="1" source="3eQRNPQ5gZ0zEMX6RfgH-1" target="3eQRNPQ5gZ0zEMX6RfgH-2">
          <mxGeometry relative="1" as="geometry" />
        </mxCell>
        <mxCell id="3eQRNPQ5gZ0zEMX6RfgH-1" value="User&lt;div&gt;&lt;br&gt;&lt;/div&gt;" style="rounded=0;whiteSpace=wrap;html=1;" vertex="1" parent="1">
          <mxGeometry x="330" y="120" width="120" height="50" as="geometry" />
        </mxCell>
        <mxCell id="3eQRNPQ5gZ0zEMX6RfgH-5" value="" style="edgeStyle=orthogonalEdgeStyle;rounded=0;orthogonalLoop=1;jettySize=auto;html=1;" edge="1" parent="1" source="3eQRNPQ5gZ0zEMX6RfgH-2" target="3eQRNPQ5gZ0zEMX6RfgH-4">
          <mxGeometry relative="1" as="geometry" />
        </mxCell>
        <mxCell id="3eQRNPQ5gZ0zEMX6RfgH-2" value="Userid" style="rounded=0;whiteSpace=wrap;html=1;" vertex="1" parent="1">
          <mxGeometry x="330" y="250" width="120" height="50" as="geometry" />
        </mxCell>
        <mxCell id="3eQRNPQ5gZ0zEMX6RfgH-7" value="" style="edgeStyle=orthogonalEdgeStyle;rounded=0;orthogonalLoop=1;jettySize=auto;html=1;" edge="1" parent="1" source="3eQRNPQ5gZ0zEMX6RfgH-4" target="3eQRNPQ5gZ0zEMX6RfgH-6">
          <mxGeometry relative="1" as="geometry" />
        </mxCell>
        <mxCell id="3eQRNPQ5gZ0zEMX6RfgH-4" value="Username:string" style="rounded=0;whiteSpace=wrap;html=1;" vertex="1" parent="1">
          <mxGeometry x="330" y="380" width="120" height="50" as="geometry" />
        </mxCell>
        <mxCell id="3eQRNPQ5gZ0zEMX6RfgH-9" value="" style="edgeStyle=orthogonalEdgeStyle;rounded=0;orthogonalLoop=1;jettySize=auto;html=1;" edge="1" parent="1" source="3eQRNPQ5gZ0zEMX6RfgH-6" target="3eQRNPQ5gZ0zEMX6RfgH-8">
          <mxGeometry relative="1" as="geometry" />
        </mxCell>
        <mxCell id="3eQRNPQ5gZ0zEMX6RfgH-6" value="List Freinds" style="rounded=0;whiteSpace=wrap;html=1;" vertex="1" parent="1">
          <mxGeometry x="330" y="510" width="120" height="50" as="geometry" />
        </mxCell>
        <mxCell id="3eQRNPQ5gZ0zEMX6RfgH-11" value="" style="edgeStyle=orthogonalEdgeStyle;rounded=0;orthogonalLoop=1;jettySize=auto;html=1;" edge="1" parent="1" source="3eQRNPQ5gZ0zEMX6RfgH-8" target="3eQRNPQ5gZ0zEMX6RfgH-10">
          <mxGeometry relative="1" as="geometry" />
        </mxCell>
        <mxCell id="3eQRNPQ5gZ0zEMX6RfgH-8" value="List Posts" style="rounded=0;whiteSpace=wrap;html=1;" vertex="1" parent="1">
          <mxGeometry x="330" y="640" width="120" height="50" as="geometry" />
        </mxCell>
        <mxCell id="3eQRNPQ5gZ0zEMX6RfgH-13" value="" style="edgeStyle=orthogonalEdgeStyle;rounded=0;orthogonalLoop=1;jettySize=auto;html=1;" edge="1" parent="1" source="3eQRNPQ5gZ0zEMX6RfgH-10" target="3eQRNPQ5gZ0zEMX6RfgH-12">
          <mxGeometry relative="1" as="geometry" />
        </mxCell>
        <mxCell id="3eQRNPQ5gZ0zEMX6RfgH-10" value="Posts" style="whiteSpace=wrap;html=1;rounded=0;" vertex="1" parent="1">
          <mxGeometry x="330" y="765" width="120" height="75" as="geometry" />
        </mxCell>
        <mxCell id="3eQRNPQ5gZ0zEMX6RfgH-15" value="" style="edgeStyle=orthogonalEdgeStyle;rounded=0;orthogonalLoop=1;jettySize=auto;html=1;" edge="1" parent="1" source="3eQRNPQ5gZ0zEMX6RfgH-12" target="3eQRNPQ5gZ0zEMX6RfgH-14">
          <mxGeometry relative="1" as="geometry" />
        </mxCell>
        <mxCell id="3eQRNPQ5gZ0zEMX6RfgH-12" value="postid:int" style="whiteSpace=wrap;html=1;rounded=0;" vertex="1" parent="1">
          <mxGeometry x="330" y="927.5" width="120" height="60" as="geometry" />
        </mxCell>
        <mxCell id="3eQRNPQ5gZ0zEMX6RfgH-17" value="" style="edgeStyle=orthogonalEdgeStyle;rounded=0;orthogonalLoop=1;jettySize=auto;html=1;" edge="1" parent="1" source="3eQRNPQ5gZ0zEMX6RfgH-14" target="3eQRNPQ5gZ0zEMX6RfgH-16">
          <mxGeometry relative="1" as="geometry" />
        </mxCell>
        <mxCell id="3eQRNPQ5gZ0zEMX6RfgH-14" value="Content: string" style="whiteSpace=wrap;html=1;rounded=0;" vertex="1" parent="1">
          <mxGeometry x="330" y="1067.5" width="120" height="60" as="geometry" />
        </mxCell>
        <mxCell id="3eQRNPQ5gZ0zEMX6RfgH-19" value="" style="edgeStyle=orthogonalEdgeStyle;rounded=0;orthogonalLoop=1;jettySize=auto;html=1;" edge="1" parent="1" source="3eQRNPQ5gZ0zEMX6RfgH-16" target="3eQRNPQ5gZ0zEMX6RfgH-18">
          <mxGeometry relative="1" as="geometry" />
        </mxCell>
        <mxCell id="3eQRNPQ5gZ0zEMX6RfgH-16" value="List Comment" style="whiteSpace=wrap;html=1;rounded=0;" vertex="1" parent="1">
          <mxGeometry x="330" y="1207.5" width="120" height="60" as="geometry" />
        </mxCell>
        <mxCell id="3eQRNPQ5gZ0zEMX6RfgH-21" value="" style="edgeStyle=orthogonalEdgeStyle;rounded=0;orthogonalLoop=1;jettySize=auto;html=1;" edge="1" parent="1" source="3eQRNPQ5gZ0zEMX6RfgH-18" target="3eQRNPQ5gZ0zEMX6RfgH-20">
          <mxGeometry relative="1" as="geometry" />
        </mxCell>
        <mxCell id="3eQRNPQ5gZ0zEMX6RfgH-18" value="Comment:int" style="whiteSpace=wrap;html=1;rounded=0;" vertex="1" parent="1">
          <mxGeometry x="330" y="1347.5" width="120" height="60" as="geometry" />
        </mxCell>
        <mxCell id="3eQRNPQ5gZ0zEMX6RfgH-20" value="Content:string" style="whiteSpace=wrap;html=1;rounded=0;" vertex="1" parent="1">
          <mxGeometry x="330" y="1487.5" width="120" height="60" as="geometry" />
        </mxCell>
        <mxCell id="3eQRNPQ5gZ0zEMX6RfgH-22" value="Влад Любека" style="rounded=0;whiteSpace=wrap;html=1;" vertex="1" parent="1">
          <mxGeometry x="40" y="20" width="120" height="60" as="geometry" />
        </mxCell>
      </root>
    </mxGraphModel>
  </diagram>
</mxfile>
